<svg width="43" height="43" viewBox="0 0 43 43" fill="none" xmlns="http://www.w3.org/2000/svg">
<path d="M8.7679 34.0552C5.83426 30.6163 4.49489 27.1144 4.20817 25.8266L35.1466 8.9601C37.8842 11.4693 41.789 18.3452 35.5082 25.7748C27.6573 35.0618 20.6566 36.1856 16.0949 36.5379C12.4455 36.8198 9.68965 35.0002 8.7679 34.0552Z" fill="#FFE58C" stroke="#FF931A" stroke-width="0.572563"/>
<path d="M9.06104 31.7843L11.283 35.3764L12.6623 35.9157L10.3753 32.1901L9.06104 31.7843Z" fill="#FFCF4A"/>
<path d="M13.0882 32.5941L15.3132 36.3213L16.3694 36.2945L14.0513 32.5697L13.0882 32.5941Z" fill="#FFCF4A"/>
<path d="M16.3762 32.2741L18.6011 36.0013L19.6574 35.9745L17.3393 32.2497L16.3762 32.2741Z" fill="#FFCF4A"/>
<path d="M19.4416 31.7233L21.6666 35.4505L22.7228 35.4237L20.2428 31.3989L19.4416 31.7233Z" fill="#FFCF4A"/>
<path d="M22.187 30.7414L24.4119 34.4686L25.4682 34.4418L22.9882 30.417L22.187 30.7414Z" fill="#FFCF4A"/>
<path d="M24.7675 29.3246L26.9924 33.0517L28.0487 33.0249L25.5687 29.0002L24.7675 29.3246Z" fill="#FFCF4A"/>
<path d="M27.2195 27.7083L29.4444 31.4354L30.5006 31.4086L28.0207 27.3839L27.2195 27.7083Z" fill="#FFCF4A"/>
<path d="M29.4777 25.7591L31.7026 29.4862L32.6917 29.2246L30.2789 25.4347L29.4777 25.7591Z" fill="#FFCF4A"/>
<path d="M33.3924 21.3354L35.8088 25.2942L36.5066 24.4995L34.0938 20.7095L33.3924 21.3354Z" fill="#FFCF4A"/>
<path d="M35.1 18.3529L37.5164 22.3117L38.2142 21.517L35.5197 17.6328L35.1 18.3529Z" fill="#FFCF4A"/>
<path d="M36.106 14.5437L38.6214 18.7702L38.997 17.4432L36.551 13.5527L36.106 14.5437Z" fill="#FFCF4A"/>
<path d="M8.7679 34.0552C5.83426 30.6163 4.49489 27.1144 4.20817 25.8266L35.1466 8.9601C37.8842 11.4693 41.789 18.3452 35.5082 25.7748C27.6573 35.0618 20.6566 36.1856 16.0949 36.5379C12.4455 36.8198 9.68965 35.0002 8.7679 34.0552Z" stroke="#FF931A" stroke-width="0.572563"/>
<path d="M35.4182 8.86062C36.9524 11.8685 36.5568 15.6251 34.7441 19.237C32.9303 22.8513 29.684 26.3558 25.443 28.9109C21.2021 31.4659 16.7473 32.601 12.9659 32.3577C9.18705 32.1145 6.04611 30.4885 4.51198 27.4806C4.27911 27.024 4.09045 26.5494 3.9445 26.06C3.22513 23.6478 4.14922 20.6006 6.17171 17.613C8.20275 14.6127 11.3795 11.6113 15.2904 9.25509C19.5122 6.71159 23.7555 5.11625 27.3331 4.89587C30.9162 4.67516 33.8758 5.83647 35.4182 8.86062Z" fill="#FFDA59" stroke="#FF931A" stroke-width="0.572563"/>
<path d="M32.4156 10.9355C33.6513 13.3582 33.3295 16.3778 31.8775 19.271C30.4243 22.1667 27.8254 24.9711 24.4333 27.0147C21.0411 29.0584 17.4757 29.9678 14.4462 29.7728C11.4192 29.578 8.8925 28.2745 7.65685 25.8519C7.46941 25.4844 7.31755 25.1023 7.20008 24.7084C6.61813 22.757 7.36785 20.3049 8.98554 17.9152C10.6118 15.5129 13.1534 13.1123 16.2801 11.2286C19.6531 9.19647 23.0475 7.91908 25.9139 7.74252C28.7857 7.56561 31.1716 8.49659 32.4156 10.9355Z" fill="#FFDA59" stroke="white" stroke-width="0.572563"/>
</svg>
