<svg width="48" height="48" viewBox="0 0 48 48" fill="none" xmlns="http://www.w3.org/2000/svg">
  <path d="M30.9375 2H13.0625C11.9854 2.00127 10.9529 2.42969 10.1913 3.19128C9.42969 3.95287 9.00127 4.98545 9 6.0625V40.1875C9.00127 41.2646 9.42969 42.2971 10.1913 43.0587C10.9529 43.8203 11.9854 44.2487 13.0625 44.25H30.9375C32.0146 44.2487 33.0471 43.8203 33.8087 43.0587C34.5703 42.2971 34.9987 41.2646 35 40.1875V6.0625C34.9987 4.98545 34.5703 3.95287 33.8087 3.19128C33.0471 2.42969 32.0146 2.00127 30.9375 2ZM13.0625 3.625H30.9375C31.5837 3.62571 32.2033 3.88274 32.6603 4.33971C33.1173 4.79668 33.3743 5.41625 33.375 6.0625V6.875H10.625V6.0625C10.6257 5.41625 10.8827 4.79668 11.3397 4.33971C11.7967 3.88274 12.4163 3.62571 13.0625 3.625ZM33.375 36.125H10.625V8.5H33.375V36.125ZM30.9375 42.625H13.0625C12.4163 42.6243 11.7967 42.3673 11.3397 41.9103C10.8827 41.4533 10.6257 40.8337 10.625 40.1875V37.75H33.375V40.1875C33.3743 40.8337 33.1173 41.4533 32.6603 41.9103C32.2033 42.3673 31.5837 42.6243 30.9375 42.625Z" fill="black"/>
  <path d="M22 41.8125C22.8975 41.8125 23.625 41.085 23.625 40.1875C23.625 39.29 22.8975 38.5625 22 38.5625C21.1025 38.5625 20.375 39.29 20.375 40.1875C20.375 41.085 21.1025 41.8125 22 41.8125Z" fill="black"/>
  <path d="M15.5 6.0625C15.9487 6.0625 16.3125 5.69873 16.3125 5.25C16.3125 4.80127 15.9487 4.4375 15.5 4.4375C15.0513 4.4375 14.6875 4.80127 14.6875 5.25C14.6875 5.69873 15.0513 6.0625 15.5 6.0625Z" fill="black"/>
  <path d="M17.9375 6.0625H26.0625C26.278 6.0625 26.4847 5.9769 26.637 5.82452C26.7894 5.67215 26.875 5.46549 26.875 5.25C26.875 5.03451 26.7894 4.82785 26.637 4.67548C26.4847 4.5231 26.278 4.4375 26.0625 4.4375H17.9375C17.722 4.4375 17.5153 4.5231 17.363 4.67548C17.2106 4.82785 17.125 5.03451 17.125 5.25C17.125 5.46549 17.2106 5.67215 17.363 5.82452C17.5153 5.9769 17.722 6.0625 17.9375 6.0625Z" fill="black"/>
  <path d="M17.9375 32.875H26.0625C30.125 32.875 30.125 28.5943 30.125 27.1875C30.125 26.972 30.0394 26.7653 29.887 26.613C29.7347 26.4606 29.528 26.375 29.3125 26.375C29.097 26.375 28.8903 26.4606 28.738 26.613C28.5856 26.7653 28.5 26.972 28.5 27.1875C28.5 30.5594 27.5257 31.25 26.0625 31.25H17.9375C16.4743 31.25 15.5 30.5594 15.5 27.1875C15.5 26.972 15.4144 26.7653 15.262 26.613C15.1097 26.4606 14.903 26.375 14.6875 26.375C14.472 26.375 14.2653 26.4606 14.113 26.613C13.9606 26.7653 13.875 26.972 13.875 27.1875C13.875 28.5943 13.875 32.875 17.9375 32.875Z" fill="black"/>
  <path d="M21.3242 29.2632C21.3492 29.2973 21.3768 29.3293 21.4069 29.3591C21.4179 29.3711 21.4265 29.3842 21.4382 29.3955C21.5039 29.458 21.5796 29.5091 21.6622 29.5464C21.6805 29.5546 21.6987 29.5608 21.7176 29.5679C21.8071 29.6056 21.9032 29.625 22.0002 29.625C22.0973 29.625 22.1934 29.6056 22.2828 29.5679C22.3017 29.5608 22.3199 29.5549 22.3382 29.5464C22.4209 29.5091 22.4966 29.458 22.5622 29.3955C22.5739 29.3842 22.5825 29.3711 22.5936 29.3591C22.6236 29.3293 22.6512 29.2973 22.6762 29.2632L25.9262 24.3882C26.0434 24.2089 26.085 23.9906 26.0421 23.7807C25.9991 23.5709 25.875 23.3865 25.6968 23.2677C25.5186 23.1488 25.3007 23.1052 25.0904 23.1462C24.8802 23.1873 24.6947 23.3097 24.5742 23.4868L22.8127 26.1291V14.1875C22.8127 13.972 22.7271 13.7653 22.5747 13.613C22.4224 13.4606 22.2157 13.375 22.0002 13.375C21.7847 13.375 21.5781 13.4606 21.4257 13.613C21.2733 13.7653 21.1877 13.972 21.1877 14.1875V26.1291L19.4262 23.4868C19.3675 23.397 19.2916 23.3196 19.2028 23.2593C19.114 23.199 19.0142 23.1568 18.9091 23.1353C18.8039 23.1138 18.6956 23.1133 18.5902 23.1339C18.4849 23.1545 18.3847 23.1957 18.2954 23.2553C18.2061 23.3148 18.1295 23.3915 18.07 23.4808C18.0104 23.5701 17.9692 23.6703 17.9486 23.7756C17.9281 23.881 17.9286 23.9893 17.9501 24.0945C17.9717 24.1996 18.0139 24.2994 18.0742 24.3882L21.3242 29.2632Z" fill="black"/>
</svg>
