<svg width="45" height="42" viewBox="0 0 45 42" fill="none" xmlns="http://www.w3.org/2000/svg">
  <path d="M20.6865 15.0106H15.0842C13.8909 15.0106 12.9199 15.9168 12.9199 17.0306V24.9693C12.9199 25.6942 12.2904 26.2818 11.5137 26.2818C10.737 26.2818 10.1074 25.6942 10.1074 24.9693V17.0306C10.1074 14.4693 12.34 12.3856 15.0842 12.3856H20.6865L19.9242 11.6741C19.375 11.1616 19.375 10.3305 19.9242 9.81799C20.4733 9.30538 21.3638 9.30538 21.9129 9.81799L25.0757 12.77C25.625 13.2825 25.625 14.1136 25.0757 14.6261L21.9129 17.5781C21.6383 17.8344 21.2784 17.9625 20.9186 17.9625C20.5588 17.9625 20.1988 17.8344 19.9243 17.5781C19.375 17.0655 19.375 16.2345 19.9243 15.7219L20.6865 15.0106ZM33.4863 15.7181C32.7096 15.7181 32.0801 16.3058 32.0801 17.0306V24.9693C32.0801 26.0831 31.1092 26.9893 29.9158 26.9893H24.3135L25.0758 26.2779C25.625 25.7654 25.625 24.9343 25.0758 24.4218C24.5267 23.9092 23.6362 23.9092 23.0871 24.4218L19.9242 27.3738C19.375 27.8864 19.375 28.7174 19.9242 29.23L23.087 32.182C23.3616 32.4384 23.7214 32.5665 24.0813 32.5665C24.4412 32.5665 24.8011 32.4383 25.0756 32.1821C25.6249 31.6695 25.6249 30.8385 25.0756 30.326L24.3134 29.6145H29.9157C32.6599 29.6145 34.8925 27.5308 34.8925 24.9695V17.0308C34.8926 16.3058 34.263 15.7181 33.4863 15.7181ZM45 21C45 32.5794 34.9066 42 22.5 42C10.0934 42 0 32.5794 0 21C0 9.42055 10.0934 0 22.5 0C34.9066 0 45 9.42055 45 21ZM42.1875 21C42.1875 10.868 33.3557 2.625 22.5 2.625C11.6443 2.625 2.8125 10.868 2.8125 21C2.8125 31.132 11.6443 39.375 22.5 39.375C33.3557 39.375 42.1875 31.132 42.1875 21Z" fill="black"/>
</svg>
