<svg width="1024" height="1024" viewBox="0 0 1024 1024" fill="none" xmlns="http://www.w3.org/2000/svg">
<path d="M359.617 802.816L206.848 886.146C197.883 891.035 189.827 897.043 182.33 903.593C271.399 978.693 386.377 1024 512 1024C636.696 1024 750.94 979.369 839.757 905.293C831.565 898.376 822.678 892.155 812.824 887.248L649.235 805.463C628.099 794.895 614.748 773.294 614.748 749.665V685.481C619.346 680.245 624.601 673.522 630.224 665.581C652.52 634.088 669.387 599.446 681.076 563.103C702.058 556.631 717.515 537.252 717.515 514.222V445.711C717.515 430.64 710.811 417.174 700.397 407.745V308.707C700.397 308.707 720.742 154.585 512.019 154.585C303.297 154.585 323.642 308.707 323.642 308.707V407.745C313.209 417.174 306.524 430.64 306.524 445.711V514.222C306.524 532.267 316.01 548.149 330.211 557.327C347.329 631.847 392.153 685.481 392.153 685.481V748.08C392.134 770.879 379.653 791.88 359.617 802.816Z" fill="#E7ECED"/>
<path d="M520.751 0.0762428C238.031 -4.75395 4.90648 220.526 0.0762933 503.247C-2.66725 663.551 68.7809 807.626 182.541 903.437C189.98 896.946 197.959 890.995 206.828 886.165L359.597 802.834C379.632 791.899 392.114 770.897 392.114 748.06V685.461C392.114 685.461 347.27 631.826 330.171 557.306C315.99 548.129 306.484 532.266 306.484 514.201V445.69C306.484 430.62 313.188 417.153 323.602 407.725V308.687C323.602 308.687 303.258 154.565 511.98 154.565C720.702 154.565 700.357 308.687 700.357 308.687V407.725C710.79 417.153 717.475 430.62 717.475 445.69V514.201C717.475 537.232 702.019 556.611 681.036 563.083C669.347 599.425 652.48 634.068 630.184 665.56C624.562 673.501 619.306 680.225 614.708 685.461V749.644C614.708 773.273 628.059 794.893 649.196 805.443L812.784 887.227C822.599 892.135 831.468 898.337 839.64 905.234C949.962 813.229 1021.24 675.665 1023.88 520.751C1028.75 238.031 803.491 4.90643 520.751 0.0762428Z" fill="#556080"/>
</svg>
