<svg width="49" height="45" viewBox="0 0 49 45" fill="none" xmlns="http://www.w3.org/2000/svg">
  <path d="M0.355072 5.14647C0.260901 5.14647 0.170587 5.10858 0.103998 5.04114C0.0374094 4.97369 0 4.88222 0 4.78683C0.00150383 3.51763 0.500002 2.30085 1.38613 1.40346C2.27226 0.506063 3.47364 0.00133248 4.72672 0H6.25566C6.34984 0 6.44015 0.0378908 6.50674 0.105337C6.57333 0.172783 6.61074 0.264259 6.61074 0.359642C6.61074 0.455025 6.57333 0.546501 6.50674 0.613947C6.44015 0.681393 6.34984 0.719284 6.25566 0.719284H4.72672C3.66193 0.720426 2.64106 1.14931 1.88807 1.91186C1.13508 2.6744 0.711461 3.70834 0.710145 4.78683C0.710145 4.88222 0.672735 4.97369 0.606146 5.04114C0.539557 5.10858 0.449243 5.14647 0.355072 5.14647Z" fill="#323C6B"/>
  <path d="M9.02795 0.719284H8.46835C8.37418 0.719284 8.28387 0.681393 8.21728 0.613947C8.15069 0.546501 8.11328 0.455025 8.11328 0.359642C8.11328 0.264259 8.15069 0.172783 8.21728 0.105337C8.28387 0.0378908 8.37418 0 8.46835 0H9.02795C9.12212 0 9.21243 0.0378908 9.27902 0.105337C9.34561 0.172783 9.38302 0.264259 9.38302 0.359642C9.38302 0.455025 9.34561 0.546501 9.27902 0.613947C9.21243 0.681393 9.12212 0.719284 9.02795 0.719284Z" fill="#323C6B"/>
  <path d="M37.2289 2.57373H4.63897C3.54395 2.57373 2.65625 3.47285 2.65625 4.58197V42.6285C2.65625 43.7376 3.54395 44.6367 4.63897 44.6367H37.2289C38.324 44.6367 39.2117 43.7376 39.2117 42.6285V4.58197C39.2117 3.47285 38.324 2.57373 37.2289 2.57373Z" fill="#EBF0F3"/>
  <path d="M37.2286 2.57373H34.584C35.1098 2.57373 35.6141 2.78531 35.986 3.16193C36.3578 3.53855 36.5667 4.04935 36.5667 4.58197V42.6278C36.5667 43.1604 36.3578 43.6712 35.986 44.0478C35.6141 44.4244 35.1098 44.636 34.584 44.636H37.2314C37.7573 44.636 38.2616 44.4244 38.6334 44.0478C39.0052 43.6712 39.2141 43.1604 39.2141 42.6278V4.58197C39.2141 4.318 39.1628 4.05663 39.0629 3.81279C38.9631 3.56895 38.8168 3.34743 38.6324 3.16091C38.448 2.97439 38.2291 2.82653 37.9882 2.72577C37.7473 2.62502 37.4892 2.57335 37.2286 2.57373Z" fill="#E1E6E9"/>
  <path d="M4.6907 6.60893H0.517182C0.423011 6.60893 0.332697 6.57104 0.266108 6.5036C0.199519 6.43615 0.162109 6.34467 0.162109 6.24929C0.162109 6.15391 0.199519 6.06243 0.266108 5.99499C0.332697 5.92754 0.423011 5.88965 0.517182 5.88965H4.6907C4.78487 5.88965 4.87519 5.92754 4.94178 5.99499C5.00837 6.06243 5.04577 6.15391 5.04577 6.24929C5.04577 6.34467 5.00837 6.43615 4.94178 6.5036C4.87519 6.57104 4.78487 6.60893 4.6907 6.60893Z" fill="#323C6B"/>
  <path d="M4.6907 12.3565H0.517182C0.423011 12.3565 0.332697 12.3186 0.266108 12.2512C0.199519 12.1837 0.162109 12.0922 0.162109 11.9968C0.162109 11.9015 0.199519 11.81 0.266108 11.7425C0.332697 11.6751 0.423011 11.6372 0.517182 11.6372H4.6907C4.78487 11.6372 4.87519 11.6751 4.94178 11.7425C5.00837 11.81 5.04577 11.9015 5.04577 11.9968C5.04577 12.0922 5.00837 12.1837 4.94178 12.2512C4.87519 12.3186 4.78487 12.3565 4.6907 12.3565Z" fill="#323C6B"/>
  <path d="M4.6907 18.106H0.517182C0.423011 18.106 0.332697 18.0681 0.266108 18.0007C0.199519 17.9332 0.162109 17.8417 0.162109 17.7464C0.162109 17.651 0.199519 17.5595 0.266108 17.4921C0.332697 17.4246 0.423011 17.3867 0.517182 17.3867H4.6907C4.78487 17.3867 4.87519 17.4246 4.94178 17.4921C5.00837 17.5595 5.04577 17.651 5.04577 17.7464C5.04577 17.8417 5.00837 17.9332 4.94178 18.0007C4.87519 18.0681 4.78487 18.106 4.6907 18.106Z" fill="#323C6B"/>
  <path d="M4.6907 23.854H0.517182C0.423011 23.854 0.332697 23.8162 0.266108 23.7487C0.199519 23.6813 0.162109 23.5898 0.162109 23.4944C0.162109 23.399 0.199519 23.3076 0.266108 23.2401C0.332697 23.1727 0.423011 23.1348 0.517182 23.1348H4.6907C4.78487 23.1348 4.87519 23.1727 4.94178 23.2401C5.00837 23.3076 5.04577 23.399 5.04577 23.4944C5.04577 23.5898 5.00837 23.6813 4.94178 23.7487C4.87519 23.8162 4.78487 23.854 4.6907 23.854Z" fill="#323C6B"/>
  <path d="M4.6907 29.6026H0.517182C0.423011 29.6026 0.332697 29.5647 0.266108 29.4972C0.199519 29.4298 0.162109 29.3383 0.162109 29.2429C0.162109 29.1476 0.199519 29.0561 0.266108 28.9886C0.332697 28.9212 0.423011 28.8833 0.517182 28.8833H4.6907C4.78487 28.8833 4.87519 28.9212 4.94178 28.9886C5.00837 29.0561 5.04577 29.1476 5.04577 29.2429C5.04577 29.3383 5.00837 29.4298 4.94178 29.4972C4.87519 29.5647 4.78487 29.6026 4.6907 29.6026Z" fill="#323C6B"/>
  <path d="M4.6907 35.3511H0.517182C0.423011 35.3511 0.332697 35.3132 0.266108 35.2458C0.199519 35.1783 0.162109 35.0869 0.162109 34.9915C0.162109 34.8961 0.199519 34.8046 0.266108 34.7372C0.332697 34.6697 0.423011 34.6318 0.517182 34.6318H4.6907C4.78487 34.6318 4.87519 34.6697 4.94178 34.7372C5.00837 34.8046 5.04577 34.8961 5.04577 34.9915C5.04577 35.0869 5.00837 35.1783 4.94178 35.2458C4.87519 35.3132 4.78487 35.3511 4.6907 35.3511Z" fill="#323C6B"/>
  <path d="M4.6907 41.0997H0.517182C0.423011 41.0997 0.332697 41.0618 0.266108 40.9943C0.199519 40.9269 0.162109 40.8354 0.162109 40.74C0.162109 40.6446 0.199519 40.5532 0.266108 40.4857C0.332697 40.4183 0.423011 40.3804 0.517182 40.3804H4.6907C4.78487 40.3804 4.87519 40.4183 4.94178 40.4857C5.00837 40.5532 5.04577 40.6446 5.04577 40.74C5.04577 40.8354 5.00837 40.9269 4.94178 40.9943C4.87519 41.0618 4.78487 41.0997 4.6907 41.0997Z" fill="#323C6B"/>
  <path d="M22.555 38.3577C19.098 38.3577 17.0308 36.12 15.7178 31.0088C15.0522 30.7257 14.4892 30.2414 14.1057 29.622C13.7222 29.0026 13.537 28.2784 13.5752 27.5483C13.5721 27.2515 13.6322 26.9576 13.7515 26.6865C13.8707 26.4154 14.0463 26.1735 14.2662 25.9774C14.5589 25.7533 14.9247 25.6505 15.2895 25.6897C20.9224 24.9071 22.8945 23.2822 24.2473 20.9165C24.2853 20.8501 24.3433 20.7978 24.4127 20.7672C24.4821 20.7366 24.5594 20.7292 24.6333 20.7463C24.7071 20.7633 24.7737 20.8038 24.8232 20.8619C24.8727 20.9199 24.9026 20.9925 24.9084 21.069C25.0505 22.9657 26.8464 25.7098 29.7104 25.7098L29.9334 25.7019C30.123 25.6761 30.3158 25.6886 30.5006 25.7387C30.6854 25.7889 30.8585 25.8756 31.01 25.9939C31.2286 26.1872 31.4035 26.426 31.5225 26.694C31.6415 26.962 31.7019 27.253 31.6996 27.5469C31.7378 28.2773 31.5522 29.0019 31.1682 29.6214C30.7841 30.2409 30.2204 30.7249 29.5542 31.0073C28.32 35.5698 26.9082 38.088 23.1359 38.3354C22.9364 38.3512 22.7439 38.3577 22.555 38.3577ZM15.1376 26.4039C14.976 26.4024 14.8185 26.4556 14.6902 26.555C14.5564 26.6928 14.4515 26.8565 14.3815 27.0363C14.3116 27.2161 14.2782 27.4083 14.2833 27.6015C14.2613 28.2076 14.429 28.8052 14.7623 29.309C15.0957 29.8128 15.5777 30.197 16.1396 30.4067C16.1937 30.4269 16.2421 30.4601 16.2807 30.5034C16.3193 30.5468 16.3469 30.599 16.3611 30.6556C17.6579 35.8344 19.6058 37.8585 23.0891 37.6204C26.1427 37.4205 27.563 35.7266 28.9122 30.6506C28.9273 30.5952 28.9551 30.5442 28.9934 30.5018C29.0316 30.4594 29.0793 30.4269 29.1324 30.4067C29.6942 30.197 30.1763 29.8128 30.5096 29.309C30.843 28.8052 31.0107 28.2076 30.9887 27.6015C30.9946 27.4107 30.9615 27.2207 30.8914 27.0435C30.8214 26.8662 30.716 26.7056 30.5818 26.5715C30.4126 26.4462 30.2026 26.3909 29.9945 26.4169L29.7104 26.4313C26.8699 26.4313 24.9482 24.0907 24.3709 22.0558C22.6523 24.5208 20.017 25.7681 15.3378 26.4126C15.2995 26.4189 15.2604 26.4189 15.2221 26.4126C15.1941 26.4076 15.1659 26.4047 15.1376 26.4039Z" fill="#323C6B"/>
  <path d="M29.7128 26.4321C26.8722 26.4321 24.9506 24.0916 24.3732 22.0567C22.6547 24.521 20.0193 25.7682 15.3402 26.4127C15.249 26.4253 15.1566 26.4014 15.0824 26.3463C15.0082 26.2911 14.958 26.209 14.9425 26.1171C14.7145 24.6944 14.5936 23.2563 14.581 21.8151C14.5129 20.8237 14.7706 19.8374 15.3139 19.0099C16.7029 16.6211 19.3795 15.3055 22.8478 15.3055C24.588 15.2376 26.2988 15.7741 27.6967 16.8261C31.0145 19.4652 31.807 22.356 30.2653 26.1998C30.2387 26.2661 30.1933 26.3229 30.1347 26.3628C30.0761 26.4028 30.0071 26.4242 29.9365 26.4242L29.7128 26.4321ZM24.5564 20.7405C24.583 20.7405 24.6094 20.7436 24.6353 20.7498C24.7092 20.7668 24.7759 20.8073 24.8254 20.8654C24.875 20.9235 24.9049 20.9962 24.9108 21.0728C25.0528 22.9645 26.8395 25.6999 29.6915 25.7136C30.9989 22.2819 30.2596 19.7831 27.2578 17.3922C25.9877 16.4347 24.4295 15.9518 22.8478 16.0256C20.9908 16.0256 17.6219 16.4614 15.9246 19.3824C15.4477 20.0987 15.224 20.9573 15.2898 21.8187C15.3023 23.1027 15.4019 24.3844 15.588 25.6546C20.9951 24.8569 22.921 23.2479 24.2518 20.9239C24.2823 20.8688 24.3266 20.8229 24.3802 20.7907C24.4338 20.7585 24.4948 20.7412 24.5571 20.7405H24.5564Z" fill="#323C6B"/>
  <path d="M9.72656 2.99854H10.4367V44.2113H9.72656V2.99854Z" fill="#89C5CD"/>
  <path d="M3.06055 9.5498H38.8V10.2691H3.06055V9.5498Z" fill="#FE7058"/>
  <path d="M37.2278 44.9954H4.63858C4.01902 44.9939 3.42526 44.7439 2.98716 44.3002C2.54907 43.8565 2.30228 43.2551 2.30078 42.6275V4.58175C2.30228 3.95421 2.54907 3.35282 2.98716 2.90908C3.42526 2.46535 4.01902 2.21539 4.63858 2.21387H37.2278C37.8474 2.21539 38.4411 2.46535 38.8792 2.90908C39.3173 3.35282 39.5641 3.95421 39.5656 4.58175V42.6275C39.5641 43.2551 39.3173 43.8565 38.8792 44.3002C38.4411 44.7439 37.8474 44.9939 37.2278 44.9954ZM4.63858 2.93315C4.20736 2.93467 3.79423 3.10885 3.48931 3.41769C3.18439 3.72653 3.01242 4.14498 3.01093 4.58175V42.6275C3.01242 43.0643 3.18439 43.4828 3.48931 43.7916C3.79423 44.1004 4.20736 44.2746 4.63858 44.2761H37.2278C37.659 44.2746 38.0722 44.1004 38.3771 43.7916C38.682 43.4828 38.854 43.0643 38.8555 42.6275V4.58175C38.854 4.14498 38.682 3.72653 38.3771 3.41769C38.0722 3.10885 37.659 2.93467 37.2278 2.93315H4.63858Z" fill="#323C6B"/>
  <path d="M44.0874 15.0493L46.7448 20.3727L41.4805 20.3986L44.0874 15.0493Z" fill="#FCD462"/>
  <path d="M44.9167 16.7113H43.2734L44.0873 15.0469L44.9167 16.7113Z" fill="#323C6B"/>
  <path d="M46.7457 20.373L46.8245 43.6059C46.8253 43.7387 46.8002 43.8703 46.7506 43.9933C46.7011 44.1162 46.628 44.228 46.5356 44.3222C46.4432 44.4163 46.3333 44.4911 46.2122 44.5421C46.0912 44.5931 45.9614 44.6194 45.8303 44.6194L42.5579 44.6352C42.4268 44.6361 42.2969 44.6106 42.1755 44.5604C42.0541 44.5102 41.9438 44.4362 41.8508 44.3426C41.7578 44.249 41.684 44.1377 41.6336 44.0151C41.5833 43.8925 41.5573 43.761 41.5573 43.6282L41.4785 20.3953L46.7457 20.373Z" fill="#89C5CD"/>
  <path d="M46.8118 40.2188L46.7472 20.373L45.3027 20.3802L45.3674 40.2188H46.8118Z" fill="#7CB1B5"/>
  <path d="M44.9189 16.7134H44.0156L45.301 20.3709L46.7468 20.3731L44.9189 16.7134Z" fill="#F7BE56"/>
  <path d="M46.8094 40.4204L46.8243 43.6068C46.8252 43.7396 46.8001 43.8713 46.7505 43.9942C46.7009 44.1171 46.6278 44.2289 46.5354 44.3231C46.443 44.4173 46.3331 44.492 46.2121 44.543C46.091 44.594 45.9612 44.6203 45.8301 44.6203L42.5578 44.6361C42.4267 44.637 42.2967 44.6116 42.1753 44.5613C42.054 44.5111 41.9436 44.4371 41.8506 44.3435C41.7576 44.2499 41.6838 44.1386 41.6335 44.016C41.5831 43.8934 41.5572 43.7619 41.5572 43.6291L41.543 40.4456L46.8094 40.4204Z" fill="#FE7058"/>
  <path d="M48.6441 28.8649C48.55 28.8649 48.4596 28.827 48.3931 28.7596C48.3265 28.6921 48.2891 28.6007 48.2891 28.5053V22.8323C48.2891 22.7369 48.3265 22.6454 48.3931 22.578C48.4596 22.5105 48.55 22.4727 48.6441 22.4727C48.7383 22.4727 48.8286 22.5105 48.8952 22.578C48.9618 22.6454 48.9992 22.7369 48.9992 22.8323V28.5053C48.9992 28.6007 48.9618 28.6921 48.8952 28.7596C48.8286 28.827 48.7383 28.8649 48.6441 28.8649Z" fill="#323C6B"/>
  <path d="M48.6441 31.0799C48.55 31.0799 48.4596 31.042 48.3931 30.9746C48.3265 30.9071 48.2891 30.8156 48.2891 30.7202V30.2664C48.2891 30.171 48.3265 30.0795 48.3931 30.0121C48.4596 29.9446 48.55 29.9067 48.6441 29.9067C48.7383 29.9067 48.8286 29.9446 48.8952 30.0121C48.9618 30.0795 48.9992 30.171 48.9992 30.2664V30.7167C48.9997 30.7642 48.9908 30.8113 48.9732 30.8554C48.9556 30.8994 48.9295 30.9395 48.8965 30.9733C48.8635 31.0071 48.8242 31.0339 48.7808 31.0522C48.7375 31.0705 48.6911 31.0799 48.6441 31.0799Z" fill="#323C6B"/>
  <path d="M42.557 44.9954C42.1999 44.9954 41.8573 44.8521 41.6044 44.5967C41.3515 44.3413 41.2089 43.9948 41.2077 43.6331L41.1289 20.4003C41.1289 20.3049 41.1663 20.2134 41.2329 20.1459C41.2995 20.0785 41.3898 20.0406 41.484 20.0406L46.7483 20.0154C46.7954 20.011 46.8428 20.0182 46.8866 20.0363C46.9304 20.0545 46.9692 20.0831 46.9997 20.1197C47.0328 20.153 47.0591 20.1925 47.0772 20.2361C47.0952 20.2797 47.1046 20.3264 47.1048 20.3736L47.1836 43.6065C47.1846 43.7863 47.1506 43.9645 47.0835 44.1309C47.0165 44.2974 46.9176 44.4488 46.7927 44.5765C46.6677 44.7041 46.5192 44.8056 46.3554 44.875C46.1917 44.9445 46.0161 44.9805 45.8386 44.9811L42.5662 44.9969L42.557 44.9954ZM41.8391 20.7556L41.9165 43.6288C41.9168 43.7141 41.9338 43.7985 41.9665 43.8771C41.9991 43.9558 42.0468 44.0271 42.1068 44.087C42.161 44.154 42.231 44.2063 42.3102 44.2391C42.3894 44.2718 42.4755 44.2841 42.5606 44.2747L45.8329 44.2589C45.9173 44.2589 46.0008 44.242 46.0786 44.2091C46.1565 44.1763 46.2272 44.1282 46.2866 44.0675C46.346 44.0069 46.393 43.9349 46.4248 43.8558C46.4566 43.7767 46.4727 43.6919 46.472 43.6065L46.3946 20.7333L41.8391 20.7556Z" fill="#323C6B"/>
  <path d="M45.3665 40.6655L45.3786 43.6067C45.3794 43.7395 45.3543 43.8711 45.3047 43.994C45.2551 44.117 45.1821 44.2287 45.0896 44.3229C44.9972 44.4171 44.8874 44.4919 44.7663 44.5429C44.6453 44.5939 44.5155 44.6201 44.3844 44.6201L42.4883 44.6295C42.511 44.6295 42.533 44.636 42.5593 44.636L45.8316 44.6201C45.9627 44.6201 46.0925 44.5939 46.2136 44.5429C46.3346 44.4919 46.4445 44.4171 46.5369 44.3229C46.6293 44.2287 46.7024 44.117 46.752 43.994C46.8016 43.8711 46.8267 43.7395 46.8258 43.6067L46.8138 40.6655H45.3665Z" fill="#EA6453"/>
  <path d="M42.5552 44.9953C42.1981 44.9954 41.8556 44.852 41.6027 44.5966C41.3497 44.3412 41.2071 43.9947 41.206 43.633L41.1875 40.448C41.1875 40.3527 41.2249 40.2612 41.2915 40.1937C41.3581 40.1263 41.4484 40.0884 41.5426 40.0884L46.8069 40.0625C46.901 40.0625 46.9914 40.1004 47.058 40.1678C47.1245 40.2353 47.1619 40.3268 47.1619 40.4221L47.1769 43.6086C47.178 43.7884 47.144 43.9667 47.077 44.1332C47.01 44.2997 46.9111 44.4512 46.7862 44.579C46.6612 44.7067 46.5126 44.8083 46.3489 44.8778C46.1851 44.9472 46.0094 44.9833 45.8318 44.9838L42.5595 44.9997L42.5552 44.9953ZM41.9019 40.8034L41.9154 43.6294C41.9158 43.7147 41.9327 43.7991 41.9654 43.8778C41.9981 43.9564 42.0458 44.0277 42.1057 44.0876C42.16 44.1546 42.2299 44.2069 42.3091 44.2397C42.3884 44.2725 42.4744 44.2847 42.5595 44.2753L45.8318 44.2595C45.9162 44.2595 45.9997 44.2426 46.0776 44.2098C46.1555 44.1769 46.2261 44.1288 46.2855 44.0681C46.345 44.0075 46.3919 43.9355 46.4238 43.8564C46.4556 43.7773 46.4716 43.6926 46.471 43.6071L46.4575 40.7803L41.9019 40.8034Z" fill="#323C6B"/>
  <path d="M41.4836 20.7585C41.4233 20.7585 41.364 20.7428 41.3113 20.7131C41.2586 20.6834 41.2142 20.6406 41.1824 20.5887C41.1506 20.5368 41.1323 20.4776 41.1293 20.4165C41.1264 20.3555 41.1388 20.2947 41.1655 20.2399L43.7724 14.8906C43.8016 14.8307 43.8467 14.7801 43.9026 14.7447C43.9586 14.7092 44.0232 14.6903 44.0891 14.6899C44.1548 14.6899 44.2191 14.7084 44.275 14.7432C44.3309 14.7779 44.3762 14.8277 44.4059 14.887L47.0632 20.2097C47.0906 20.2644 47.1037 20.3253 47.1013 20.3866C47.0989 20.4479 47.081 20.5076 47.0494 20.5599C47.0178 20.6123 46.9735 20.6555 46.9208 20.6856C46.868 20.7157 46.8085 20.7317 46.7479 20.7319L41.4836 20.7571V20.7585ZM44.0948 15.8545L42.056 20.0364L46.1748 20.017L44.0948 15.8545Z" fill="#323C6B"/>
  <path d="M44.9183 17.071H43.275C43.2146 17.071 43.1552 17.0554 43.1024 17.0256C43.0496 16.9959 43.0051 16.9529 42.9733 16.901C42.9414 16.849 42.9232 16.7896 42.9203 16.7285C42.9174 16.6673 42.93 16.6065 42.9568 16.5517L43.77 14.8879C43.7992 14.8281 43.8443 14.7777 43.9003 14.7424C43.9562 14.7071 44.0208 14.6883 44.0867 14.688C44.1523 14.688 44.2166 14.7064 44.2725 14.7412C44.3284 14.776 44.3737 14.8258 44.4034 14.8851L45.2364 16.5488C45.2638 16.6036 45.2769 16.6646 45.2744 16.7261C45.272 16.7875 45.254 16.8472 45.2222 16.8996C45.1905 16.952 45.146 16.9952 45.093 17.0252C45.04 17.0552 44.9804 17.071 44.9197 17.071H44.9183ZM43.8466 16.3517H44.3438L44.0938 15.8482L43.8466 16.3517Z" fill="#323C6B"/>
</svg>
