<svg width="49" height="45" viewBox="0 0 49 45" fill="none" xmlns="http://www.w3.org/2000/svg">
  <path d="M24.5 45C24.4101 45 24.32 44.9985 24.2284 44.9956C23.3094 44.9655 20.1227 44.8311 17.7103 44.3616C14.7491 43.7853 13.0935 43.4092 11.6942 42.8308C10.5918 42.375 10.2472 41.6939 10.1409 41.2728C9.03633 41.0546 5.56143 40.2212 2.78959 37.9555C1.60084 36.9837 0.907767 36.0487 0.509853 35.2408C0.504383 35.2307 0.499388 35.2201 0.494631 35.2096C-0.217237 33.7428 0.0432026 32.7024 0.0608031 32.6358C0.0672249 32.612 0.0760252 32.5886 0.086966 32.5659L8.6056 15.1453C8.53092 14.3704 8.2945 10.0596 11.6567 5.6963C14.8195 1.59168 20.4155 1.13463 22.1135 1.09292V0.421246C22.1135 0.188718 22.3266 0 22.5892 0H26.4106C26.6732 0 26.8863 0.188718 26.8863 0.421246V1.09292C28.584 1.13441 34.1801 1.59126 37.3436 5.6963C40.7056 10.0593 40.4691 14.3704 40.3944 15.1453L48.9128 32.5659C48.924 32.5884 48.9328 32.6118 48.939 32.6358C48.9568 32.7019 49.2151 33.7342 48.5137 35.1917C48.5045 35.217 48.4926 35.2414 48.4781 35.2648C48.0782 36.0673 47.3871 36.9934 46.2102 37.9553C43.4384 40.221 39.9635 41.0544 38.8592 41.2726C38.7531 41.6936 38.4082 42.3748 37.3058 42.8306C35.9061 43.409 34.2507 43.7849 31.2898 44.3614C28.8773 44.8309 25.6904 44.9653 24.7714 44.9954C24.6801 44.9987 24.5902 45 24.5 45ZM11.0414 40.8623C11.0456 40.8891 11.0468 40.9169 11.0452 40.9449C11.0449 40.9655 11.0423 41.6317 12.0964 42.0675C13.4148 42.6124 15.0229 42.9761 17.9144 43.5387C20.249 43.9932 23.3646 44.1242 24.2636 44.1537C24.4227 44.1588 24.5771 44.1588 24.7355 44.1537C25.635 44.1242 28.7503 43.993 31.085 43.5387C33.9765 42.9761 35.5845 42.6124 36.9031 42.0675C37.9575 41.6319 37.9546 40.9657 37.9542 40.9375C37.9535 40.9135 37.9554 40.8899 37.9592 40.8667C37.8512 40.4072 37.4364 38.7738 36.5214 36.5534C35.7446 34.6687 34.6006 33.1143 34.0276 32.3993C33.7859 32.5924 33.4836 32.7268 33.1495 32.7771C32.8586 33.1699 31.4693 34.9375 29.143 36.1869C26.6311 37.5362 24.7452 38.0909 24.6487 38.1189C24.6011 38.1329 24.5509 38.1402 24.4998 38.1402C24.4482 38.1402 24.3977 38.1329 24.3499 38.1187C24.2415 38.0874 22.3599 37.5315 19.8563 36.1869C17.5305 34.9375 16.1407 33.1699 15.8503 32.7771C15.5159 32.7268 15.2134 32.5922 14.9717 32.3993C14.3988 33.1143 13.2545 34.6685 12.4782 36.5534C11.5663 38.7666 11.151 40.3966 11.0414 40.8623ZM1.45576 35.055C1.81681 35.7284 2.42426 36.5104 3.43486 37.3365C5.88632 39.3404 9.00399 40.1618 10.1773 40.4139C10.304 39.9139 10.5576 39.0042 10.9895 37.8053C11.077 37.5397 11.5556 35.9245 11.5539 32.378C11.552 28.4688 10.2793 24.1966 10.2527 24.1085C10.2517 24.1052 10.2508 24.1018 10.2498 24.0984C10.2498 24.0982 10.2498 24.098 10.2498 24.0978C10.2227 23.9986 10.2377 23.8987 10.285 23.8132C10.285 23.813 10.2853 23.8128 10.2853 23.8126C10.2955 23.7941 10.3074 23.7764 10.3205 23.7595C10.3792 23.6841 10.4658 23.6251 10.5716 23.5963C10.5719 23.5963 10.5721 23.5963 10.5726 23.5961C10.5804 23.594 10.5883 23.5921 10.5964 23.5902C10.5968 23.5902 10.5971 23.5902 10.5971 23.5902C10.6075 23.5879 10.6182 23.5858 10.6287 23.5843L21.605 21.7523C21.8007 21.7196 21.9989 21.7984 22.1011 21.9499C22.2034 22.1011 22.1884 22.293 22.0635 22.4305L16.0615 29.032C15.975 29.1275 15.8456 29.1847 15.7074 29.189C15.5649 29.1906 15.4355 29.1439 15.3418 29.054L11.5848 25.4559C11.9763 27.0954 12.5036 29.784 12.5051 32.3782C12.5053 33.1786 12.4822 33.8837 12.4444 34.5009C13.2531 33.0617 14.1077 32.0046 14.4411 31.613C14.4088 31.4955 14.3916 31.3727 14.3916 31.2465C14.3916 30.3901 15.1784 29.6932 16.1457 29.6932C16.6402 29.6932 17.0874 29.8752 17.4066 30.1675L22.7873 21.8509C23.1788 21.246 23.7965 20.8991 24.4827 20.8991C25.1688 20.8991 25.7865 21.246 26.178 21.8509L26.8854 22.944C26.8913 22.9524 26.897 22.9611 26.902 22.9699L31.5721 30.1877C31.8925 29.8836 32.3489 29.6932 32.8545 29.6932C33.8216 29.6932 34.6086 30.3901 34.6086 31.2465C34.6086 31.3729 34.5915 31.4957 34.5592 31.6132C34.9102 32.0254 35.8373 33.1735 36.681 34.7277C36.6348 34.0581 36.6054 33.2782 36.6058 32.3782C36.607 29.7103 37.1648 26.9425 37.5589 25.3186L33.6587 29.054C33.5645 29.1439 33.4292 29.1906 33.2931 29.189C33.1549 29.1847 33.0256 29.1275 32.939 29.032L26.937 22.4305C26.8121 22.293 26.7969 22.1013 26.8994 21.9499C27.0017 21.7986 27.1979 21.719 27.3955 21.7523L38.3478 23.5801C38.4044 23.5748 38.4634 23.5782 38.5224 23.5921C38.7759 23.6523 38.9267 23.8832 38.8587 24.1079C38.8456 24.1509 37.5593 28.4518 37.5574 32.3784C37.5553 36.2621 38.1297 37.83 38.1354 37.8454C38.1723 37.9429 38.1666 38.044 38.1273 38.1329C38.4891 39.17 38.7084 39.9604 38.8235 40.4139C39.998 40.1605 43.1199 39.3361 45.5659 37.3369C46.5753 36.5117 47.1818 35.729 47.5429 35.0542L38.4482 15.9081C38.2063 15.6059 36.0343 13.0224 32.225 12.685C28.5724 12.3615 27.4545 14.0001 27.3004 14.2619C27.2521 14.5726 27.0312 15.3072 26.021 15.6567C25.5294 15.8268 25.146 15.7432 24.911 15.6434C24.7498 15.5749 24.6147 15.4816 24.5029 15.3801C24.3904 15.4829 24.2543 15.5777 24.0909 15.647C23.7539 15.7902 23.3698 15.7946 22.9809 15.6602C21.9598 15.307 21.7453 14.5604 21.7001 14.2558C21.5472 13.9965 20.4288 12.3585 16.777 12.6816C12.9684 13.0182 10.7966 15.5996 10.5531 15.9041L1.45576 35.055ZM16.9085 32.6442C17.4341 33.2732 18.6243 34.5396 20.3499 35.4664C22.3813 36.5576 24.0141 37.1168 24.5 37.2725C24.9857 37.117 26.6185 36.5576 28.6499 35.4664C30.3755 34.5396 31.5657 33.2732 32.0915 32.6442C31.5578 32.4151 31.1742 31.953 31.1097 31.4081H17.8903C17.8261 31.953 17.4425 32.4151 16.9085 32.6442ZM0.979834 32.8605C0.959141 32.9637 0.907053 33.3111 1.00647 33.8281L9.69516 15.5372C9.70658 15.5132 9.72061 15.4901 9.73679 15.4684C9.83502 15.3367 12.1935 12.2403 16.6814 11.8429C20.328 11.52 21.8707 12.9634 22.3806 13.63C22.7233 13.5635 23.238 13.4967 23.6699 13.5786C24.0184 13.6448 24.2983 13.8023 24.5022 13.9576C24.7055 13.8034 24.9838 13.6477 25.3296 13.5822C25.7616 13.5001 26.276 13.5669 26.619 13.6336C27.1292 12.967 28.6718 11.523 32.3184 11.8465C36.8061 12.2439 39.1648 15.3405 39.263 15.4721C39.2792 15.4941 39.2932 15.517 39.3046 15.541L47.9907 33.8262C48.0909 33.3077 48.0395 32.96 48.02 32.8605L39.4723 15.3805C39.4388 15.3123 39.4267 15.2375 39.4364 15.1638C39.4421 15.1194 39.982 10.616 36.5575 6.17167C33.6908 2.45123 28.449 1.99207 26.8811 1.93942V11.3572C27.9697 10.6727 30.0499 9.60777 32.372 9.68865C35.6892 9.80281 38.4241 12.11 38.5393 12.2081C38.7281 12.3697 38.7331 12.6361 38.5512 12.8033C38.369 12.9708 38.0681 12.9758 37.8788 12.8145C37.8533 12.7926 35.2846 10.632 32.3351 10.5305C29.3939 10.4336 26.7507 12.5135 26.7241 12.5344C26.5843 12.6458 26.3833 12.6736 26.2123 12.6064C26.0405 12.5388 25.9297 12.388 25.9297 12.2216V1.5129C25.9297 1.49184 25.9316 1.4712 25.9347 1.45098V0.842492H23.0646V1.45014C23.0682 1.47057 23.0699 1.49142 23.0699 1.51269V12.2214C23.0699 12.3878 22.959 12.5384 22.7873 12.6062C22.6156 12.6738 22.4148 12.6456 22.2752 12.5342C22.2491 12.5131 19.6076 10.4296 16.6645 10.5303C13.715 10.6316 11.1463 12.7924 11.1206 12.8143C10.9317 12.9754 10.6304 12.9708 10.4482 12.8031C10.266 12.6357 10.2712 12.3695 10.4601 12.2079C10.575 12.1098 13.3099 9.8026 16.6274 9.68844C18.9464 9.60588 21.0294 10.6725 22.118 11.3568V1.9392C20.5506 1.99165 15.3085 2.45081 12.4416 6.17146C9.01802 10.6158 9.55769 15.1191 9.5634 15.1642C9.57315 15.2377 9.56054 15.3125 9.52748 15.3803L0.979834 32.8605ZM32.8543 30.5348C32.4117 30.5348 32.0516 30.8537 32.0516 31.2457C32.0516 31.6377 32.4117 31.9565 32.8543 31.9565C33.2969 31.9565 33.657 31.6377 33.657 31.2457C33.657 30.8537 33.2969 30.5348 32.8543 30.5348ZM16.1457 30.5348C15.7031 30.5348 15.343 30.8537 15.343 31.2457C15.343 31.6377 15.7031 31.9565 16.1457 31.9565C16.5884 31.9565 16.9485 31.6377 16.9485 31.2457C16.9485 30.8537 16.5884 30.5348 16.1457 30.5348ZM28.937 30.5658H30.7204L28.937 27.8094V30.5658ZM26.9565 30.5658H27.9856V26.3458C27.9856 26.3434 27.9856 26.3413 27.9856 26.339L26.9565 24.7482V30.5658ZM24.9757 30.5658H26.0051V23.2778L25.3525 22.2689C25.2473 22.1063 25.1187 21.9774 24.9757 21.8875V30.5658ZM22.9949 30.5658H24.0243V21.8667C23.8676 21.9568 23.7266 22.0933 23.6129 22.2689L22.9911 23.2298C22.9938 23.2477 22.9952 23.2658 22.9952 23.2844V30.5658H22.9949ZM21.0144 30.5658H22.0438V24.6943L21.0106 26.2914C21.0132 26.3093 21.0147 26.3274 21.0147 26.346V30.5658H21.0144ZM18.245 30.5658H20.063V27.7557L18.245 30.5658ZM28.4863 22.7911L33.3338 28.1228L37.3555 24.2711L28.4863 22.7911ZM11.6448 24.2713L15.6665 28.123L20.514 22.7913L11.6448 24.2713ZM22.7374 14.4264C22.827 14.5825 22.9987 14.7617 23.3263 14.875C23.5144 14.9399 23.6174 14.9129 23.6787 14.8868C23.7889 14.8401 23.8795 14.7404 23.9442 14.6469C23.8333 14.5511 23.6685 14.4397 23.4709 14.4022C23.2647 14.3632 22.9804 14.3879 22.7374 14.4264ZM25.059 14.648C25.1241 14.7415 25.2143 14.8388 25.3234 14.8843C25.3846 14.9096 25.4871 14.9359 25.6738 14.8715C25.9961 14.7598 26.1675 14.5842 26.2584 14.4291C26.0051 14.3895 25.7249 14.3687 25.5292 14.4056C25.3337 14.4428 25.17 14.5524 25.059 14.648ZM31.9997 21.3176C31.0645 21.3176 30.1338 21.2428 29.318 21.0419C27.7754 20.6623 26.8359 19.6932 26.6016 18.2393C26.5826 18.1222 26.5709 17.9969 26.5669 17.8669C26.5238 16.4753 27.4364 15.1377 28.8913 14.4588C30.0202 13.9321 31.3159 13.6648 32.7428 13.6648C36.6791 13.6648 38.1264 16.5813 38.2103 17.9937C38.2826 19.2094 37.5915 20.7398 35.4071 21.0518C34.4234 21.1925 33.2077 21.3176 31.9997 21.3176ZM32.7428 14.5075C31.472 14.5075 30.3255 14.7419 29.3349 15.2044C28.198 15.735 27.4847 16.7711 27.5176 17.8438C27.5209 17.9415 27.5294 18.0346 27.543 18.1201C27.543 18.1201 27.543 18.1201 27.543 18.1203C27.7226 19.2332 28.4052 19.943 29.5723 20.2301C31.3671 20.6716 33.903 20.4134 35.2556 20.2202C37.2192 19.9399 37.2863 18.4792 37.2604 18.0384C37.2161 17.2926 36.319 14.5075 32.7428 14.5075ZM17.0003 21.3176C15.7921 21.3176 14.5769 21.1925 13.5927 21.052C11.4081 20.74 10.7174 19.2097 10.7897 17.9939C10.8737 16.5815 12.3207 13.665 16.2573 13.665C17.6839 13.665 18.9797 13.9321 20.1087 14.4591C21.5638 15.1381 22.4762 16.4756 22.4332 17.8669C22.4291 17.9963 22.4177 18.1216 22.3987 18.2395C22.1642 19.6937 21.2247 20.6627 19.682 21.0423C18.8662 21.2426 17.9353 21.3176 17.0003 21.3176ZM16.2573 14.5075C12.6808 14.5075 11.7842 17.2926 11.7397 18.0382C11.7135 18.4792 11.7806 19.9397 13.7442 20.22C15.0968 20.4134 17.6337 20.6716 19.4275 20.2299C20.5946 19.9428 21.2772 19.233 21.4568 18.1201C21.4706 18.0342 21.4792 17.9411 21.4823 17.8435C21.5153 16.7706 20.8023 15.7346 19.6654 15.2042C18.6743 14.7419 17.5276 14.5075 16.2573 14.5075ZM25.7126 20.0734H23.2873C23.0247 20.0734 22.8116 19.8847 22.8116 19.6522C22.8116 19.4196 23.0247 19.2309 23.2873 19.2309H25.7126C25.9751 19.2309 26.1882 19.4196 26.1882 19.6522C26.1882 19.8847 25.9754 20.0734 25.7126 20.0734ZM25.2499 18.7998H23.7501C23.4875 18.7998 23.2744 18.6111 23.2744 18.3785C23.2744 18.146 23.4875 17.9573 23.7501 17.9573H25.2499C25.5125 17.9573 25.7256 18.146 25.7256 18.3785C25.7256 18.6111 25.5128 18.7998 25.2499 18.7998ZM25.2499 17.508H23.7501C23.4875 17.508 23.2744 17.3193 23.2744 17.0868C23.2744 16.8543 23.4875 16.6655 23.7501 16.6655H25.2499C25.5125 16.6655 25.7256 16.8543 25.7256 17.0868C25.7256 17.3193 25.5128 17.508 25.2499 17.508Z" fill="black"/>
</svg>
