<svg width="49" height="45" viewBox="0 0 49 45" fill="none" xmlns="http://www.w3.org/2000/svg">
  <path d="M43.7206 0H5.27975C2.36865 0 0 2.17495 0 4.84875V30.624C0 33.2975 2.36865 35.4728 5.27975 35.4728H20.7582V38.127H12.9678C10.9045 38.127 9.22601 39.6685 9.22601 41.5637C9.22601 43.4585 10.9045 45 12.9678 45H36.0322C38.0955 45 39.7744 43.4585 39.7744 41.5637C39.7744 39.6685 38.0955 38.127 36.0322 38.127H28.2421V35.4728H43.7206C46.6317 35.4728 49 33.2975 49 30.624V4.84875C49 2.17495 46.6317 0 43.7206 0V0ZM36.9033 41.5633C36.9033 42.0045 36.5126 42.3633 36.0322 42.3633H12.9678C12.4878 42.3633 12.0971 42.0045 12.0971 41.5633C12.0971 41.1225 12.4878 40.7637 12.9678 40.7637H36.0322C36.5126 40.7637 36.9033 41.1225 36.9033 41.5633ZM25.371 38.127H23.6293V35.4728H25.371V38.127ZM46.1289 30.624C46.1289 31.8435 45.0485 32.8361 43.7206 32.8361H5.27975C3.95149 32.8361 2.87109 31.8435 2.87109 30.624V4.84875C2.87109 3.62892 3.95149 2.63672 5.27975 2.63672H43.7206C45.0485 2.63672 46.1289 3.62892 46.1289 4.84875V30.624Z" fill="black"/>
  <path d="M41.5223 24.0704C41.304 23.3704 40.5088 22.9656 39.7469 23.1665C38.9846 23.367 38.5439 24.0972 38.7626 24.7969L38.9218 25.3074L12.1642 8.28516H12.199C12.9915 8.28516 13.6345 7.69498 13.6345 6.9668C13.6345 6.23895 12.9915 5.64844 12.199 5.64844H7.5858C7.13532 5.64844 6.71064 5.8431 6.4396 6.17338C6.1682 6.504 6.08184 6.93212 6.20595 7.33003L7.47738 11.4025C7.65795 11.981 8.23217 12.358 8.85648 12.358C8.98733 12.358 9.12079 12.3415 9.25275 12.3065C10.015 12.106 10.4558 11.3757 10.2371 10.6761L10.0778 10.1655L36.8358 27.1875H36.801C36.0081 27.1875 35.3655 27.7776 35.3655 28.5058C35.3655 29.234 36.0081 29.8242 36.801 29.8242H41.4139C41.8643 29.8242 42.289 29.6299 42.5604 29.2993C42.8315 28.9686 42.9178 28.5402 42.7937 28.1426L41.5223 24.0704Z" fill="black"/>
</svg>
