<svg width="49" height="45" viewBox="0 0 49 45" fill="none" xmlns="http://www.w3.org/2000/svg">
  <path d="M42.1143 18.2432C45.6462 17.5975 48.3763 14.4866 48.9079 10.5026C49.231 8.08182 48.6997 5.6673 47.4117 3.70392C46.1169 1.73035 44.2141 0.44854 42.0538 0.0944435C38.7157 -0.452768 35.3655 1.41475 33.7188 4.74128L42.1143 18.2432Z" fill="#703F16"/>
  <path d="M41.6246 14.9639C43.8651 14.5542 45.5989 12.5661 45.9391 10.0168C46.1466 8.46191 45.8075 6.91434 44.9838 5.65893C44.1671 4.41382 42.97 3.60562 41.6137 3.38334C39.5101 3.03826 37.394 4.22706 36.3477 6.3404L41.6246 14.9639Z" fill="#9D5B6E"/>
  <path d="M6.8859 18.2432C3.35406 17.5975 0.623934 14.4866 0.0923023 10.5026C-0.230792 8.08182 0.300553 5.6673 1.58853 3.70392C2.8832 1.73035 4.78598 0.44854 6.94629 0.0944435C10.2844 -0.452768 13.6346 1.41475 15.2814 4.74128L6.8859 18.2432Z" fill="#663E1E"/>
  <path d="M7.37399 14.9639C5.13358 14.5542 3.39972 12.5661 3.0595 10.0168C2.85201 8.46191 3.19118 6.91434 4.01481 5.65893C4.83154 4.41382 6.02859 3.60562 7.3849 3.38334C9.48856 3.03826 11.6047 4.22706 12.651 6.3404L7.37399 14.9639Z" fill="#D37B93"/>
  <path d="M24.5009 44.9998C18.7307 44.9998 13.8936 43.2725 10.5123 40.0045C6.95213 36.5637 5.07031 31.4788 5.07031 25.2993C5.07031 19.4719 5.44891 13.4611 8.19541 8.97577C11.1836 4.09583 16.5171 1.72363 24.5008 1.72363C32.4844 1.72363 37.8179 4.09583 40.8061 8.97577C43.5526 13.4611 43.9312 19.4719 43.9312 25.2993C43.9312 31.4788 42.0495 36.5637 38.4892 40.0045C35.1081 43.2723 30.271 44.9998 24.5009 44.9998Z" fill="#965500"/>
  <path d="M40.8054 8.97577C37.8172 4.09583 32.4837 1.72363 24.5 1.72363V44.9996C30.2701 44.9996 35.1073 43.2724 38.4886 40.0044C42.0487 36.5636 43.9305 31.4787 43.9305 25.2992C43.9305 19.4718 43.5518 13.461 40.8054 8.97577Z" fill="#703F16"/>
  <path d="M17.5391 15.5983C17.5391 14.5865 18.4222 13.7671 19.5075 13.7671C20.5942 13.7671 21.4773 14.5865 21.4773 15.5983C21.4773 16.6099 20.5942 17.4301 19.5075 17.4301C18.4222 17.4301 17.5391 16.61 17.5391 15.5983Z" fill="#333333"/>
  <path d="M31.4601 15.5985C31.4601 14.5792 30.5712 13.7529 29.4768 13.7529C28.381 13.7529 27.4922 14.5792 27.4922 15.5985C27.4922 16.6177 28.3811 17.444 29.4768 17.444C30.5712 17.444 31.4601 16.6177 31.4601 15.5985Z" fill="#333333"/>
  <path d="M24.5007 29.6825C22.8974 29.6825 21.464 28.5258 20.9223 28.0285C20.3783 27.5292 19.1133 26.2068 19.1133 24.7122C19.1133 23.4896 19.7764 22.56 20.9805 22.0948C21.783 21.7846 22.8029 21.6582 24.5007 21.6582C26.1985 21.6582 27.2183 21.7848 28.0209 22.0948C29.2249 22.56 29.888 23.4895 29.888 24.7122C29.888 26.2068 28.6229 27.5292 28.0791 28.0285C27.5373 28.5258 26.104 29.6825 24.5007 29.6825Z" fill="#211915"/>
  <path d="M23 37.2612C23.4927 37.2832 23.9924 37.2948 24.5 37.2948C25.0075 37.2948 25.5072 37.2831 25.9999 37.2612V28.4248H23V37.2612Z" fill="#211915"/>
</svg>
