<svg width="150" height="150" viewBox="0 0 150 150" fill="none" xmlns="http://www.w3.org/2000/svg">
<g opacity="0.15">
<path d="M145.219 100.26L54.8796 140.75C50.704 142.621 45.7117 140.945 43.7284 137.005L0.811574 51.7754C-1.17174 47.8359 0.604884 43.126 4.78052 41.2549L95.1203 0.765668C99.2959 -1.10546 104.288 0.570667 106.272 4.51011L149.188 89.7398C151.171 93.6793 149.394 98.3892 145.219 100.26Z" fill="#939598"/>
<path d="M149.186 89.7398L106.27 4.5101C105.033 2.05544 102.629 0.479366 99.9822 0.0930176L141.445 82.4364C143.428 86.3752 141.652 91.0858 137.476 92.957L47.1373 133.446C45.5635 134.152 43.8743 134.353 42.2734 134.119L43.7272 137.005C45.7106 140.944 50.7037 142.621 54.8785 140.749L145.218 100.26C149.393 98.3892 151.17 93.6793 149.186 89.7398Z" fill="#808285"/>
<path d="M130.091 126.579L32.6086 147.678C28.1032 148.653 23.6133 145.999 22.579 141.748L0.213741 49.7788C-0.819717 45.5282 1.99423 41.2922 6.49964 40.3165L103.983 19.217C108.488 18.242 112.978 20.8968 114.013 25.1474L136.378 117.117C137.411 121.367 134.597 125.603 130.091 126.579Z" fill="#F1F2F2"/>
<path d="M136.38 117.117L114.014 25.1474C113.18 21.717 110.094 19.3281 106.566 19.0461L128.639 109.813C129.672 114.064 126.858 118.3 122.353 119.276L24.8692 140.375C23.9999 140.563 23.1321 140.613 22.2891 140.546L22.5817 141.748C23.6151 145.999 28.1058 148.654 32.6113 147.678L130.095 126.578C134.599 125.603 137.413 121.367 136.38 117.117Z" fill="#E6E7E8"/>
<path d="M136.378 117.117L114.013 25.1474C113.423 22.7227 111.708 20.8209 109.507 19.8123C109.778 20.3396 109.997 20.8997 110.142 21.4957L132.508 113.465C133.541 117.716 130.727 121.951 126.222 122.927L28.7382 144.027C26.8029 144.446 24.8715 144.191 23.2148 143.431C24.8784 146.668 28.7351 148.518 32.6089 147.678L130.092 126.578C134.597 125.603 137.412 121.367 136.378 117.117Z" fill="#D1D3D4"/>
<path d="M108.385 150H8.36985C3.74754 150 0 146.465 0 142.104V47.7455C0 43.3847 3.74754 39.8491 8.36985 39.8491H108.385C113.008 39.8491 116.755 43.3847 116.755 47.7455V142.104C116.755 146.465 113.008 150 108.385 150Z" fill="#FCC4AE"/>
<path d="M4.64591 136.027C3.79437 136.027 3.09766 135.37 3.09766 134.567C3.09766 133.756 3.79437 133.106 4.64591 133.106C5.49745 133.106 6.19416 133.756 6.19416 134.567C6.19416 135.37 5.49745 136.027 4.64591 136.027ZM4.64591 130.185C3.79437 130.185 3.09766 129.527 3.09766 128.724V73.0649C3.09766 72.2616 3.79437 71.6042 4.64591 71.6042C5.49745 71.6042 6.19416 72.2616 6.19416 73.0649V128.724C6.19416 129.527 5.49745 130.185 4.64591 130.185Z" fill="#FFD2C0"/>
<path d="M108.991 39.8701C109.005 40.0593 109.012 40.2499 109.012 40.442V134.8C109.012 139.161 105.265 142.697 100.642 142.697H0.627626C0.424031 142.697 0.221209 142.689 0.0214844 142.676C0.331909 146.77 3.95095 150 8.36889 150H108.384C113.007 150 116.754 146.464 116.754 142.104V47.7453C116.754 43.5766 113.33 40.163 108.991 39.8701Z" fill="#F2AD97"/>
<path d="M108.387 39.8491H8.37147C5.93607 39.8491 3.74452 40.8307 2.21484 42.3965L114.057 147.912C115.716 146.469 116.757 144.401 116.757 142.104V47.7455C116.757 43.3847 113.009 39.8491 108.387 39.8491Z" fill="#478CF7"/>
<path d="M108.991 39.8701C109.006 40.0593 109.013 40.2499 109.013 40.442V134.8C109.013 137.098 107.972 139.165 106.312 140.609L114.054 147.912C115.713 146.469 116.754 144.401 116.754 142.104V47.7453C116.755 43.5766 113.331 40.163 108.991 39.8701Z" fill="#377DE2"/>
<path d="M16.306 64.757C21.8512 64.757 26.3465 60.516 26.3465 55.2845C26.3465 50.053 21.8512 45.812 16.306 45.812C10.7609 45.812 6.26562 50.053 6.26562 55.2845C6.26562 60.516 10.7609 64.757 16.306 64.757Z" fill="#FFA91A"/>
<path d="M18.3865 46.0166C18.5282 46.6505 18.6033 47.3078 18.6033 47.9812C18.6033 53.2126 14.1079 57.4537 8.56287 57.4537C7.84912 57.4537 7.15241 57.3836 6.48047 57.2492C7.43961 61.5377 11.4736 64.7571 16.3041 64.7571C21.8492 64.7571 26.3445 60.516 26.3445 55.2846C26.3438 50.7265 22.9322 46.9208 18.3865 46.0166Z" fill="#F79219"/>
<path d="M16.3059 60.2019C19.1846 60.2019 21.5181 58.0003 21.5181 55.2845C21.5181 52.5688 19.1846 50.3672 16.3059 50.3672C13.4273 50.3672 11.0938 52.5688 11.0938 55.2845C11.0938 58.0003 13.4273 60.2019 16.3059 60.2019Z" fill="#58595B"/>
<path d="M17.5075 50.4988C17.5988 50.8632 17.6468 51.2423 17.6468 51.633C17.6468 54.3491 15.3128 56.5504 12.4346 56.5504C12.0213 56.5504 11.6187 56.5043 11.2324 56.4189C11.7751 58.588 13.8405 60.202 16.3053 60.202C19.1842 60.202 21.5175 58.0001 21.5175 55.2847C21.5182 52.9593 19.8066 51.0107 17.5075 50.4988Z" fill="#414042"/>
<path d="M32.512 111.758C32.495 112.313 32.0212 112.759 31.4337 112.776C29.5015 112.83 25.2531 112.638 22.6566 110.188C20.0602 107.738 19.8566 103.73 19.9139 101.907C19.9309 101.352 20.4047 100.906 20.9923 100.89C22.9245 100.836 27.1729 101.028 29.7693 103.478C32.3657 105.927 32.5693 109.935 32.512 111.758Z" fill="#76A34F"/>
<path d="M47.0921 125.516C47.0751 126.071 46.6013 126.517 46.0138 126.533C44.0815 126.587 39.8331 126.395 37.2367 123.945C34.6403 121.496 34.4367 117.488 34.494 115.665C34.511 115.11 34.9848 114.663 35.5723 114.647C37.5046 114.593 41.753 114.785 44.3494 117.235C46.9466 119.684 47.1494 123.693 47.0921 125.516Z" fill="#76A34F"/>
<path d="M35.5723 112.776C34.984 112.759 34.511 112.313 34.494 111.758C34.4367 109.935 34.6403 105.927 37.2367 103.478C39.8331 101.028 44.0815 100.836 46.0138 100.89C46.6021 100.906 47.0751 101.353 47.0921 101.907C47.1494 103.73 46.9458 107.738 44.3494 110.188C41.753 112.638 37.5046 112.829 35.5723 112.776Z" fill="#76A34F"/>
<path d="M20.9923 126.533C20.4039 126.517 19.9309 126.07 19.9139 125.516C19.8566 123.693 20.0602 119.684 22.6566 117.235C25.2531 114.785 29.5015 114.593 31.4337 114.647C32.022 114.663 32.495 115.11 32.512 115.665C32.5693 117.488 32.3657 121.496 29.7693 123.945C27.1729 126.395 22.9245 126.587 20.9923 126.533Z" fill="#76A34F"/>
<path d="M44.5255 113.127C44.1972 113.455 44.1972 113.968 44.5255 114.296C45.6031 115.375 48.1608 117.567 51.145 117.567C54.1293 117.567 56.687 115.374 57.7646 114.296C58.0928 113.968 58.0928 113.455 57.7646 113.127C56.687 112.048 54.1293 109.856 51.145 109.856C48.1608 109.856 45.6031 112.048 44.5255 113.127Z" fill="#76A34F"/>
<path d="M22.4755 114.296C22.8037 113.968 22.8037 113.455 22.4755 113.127C21.3979 112.048 18.8402 109.856 15.856 109.856C12.8717 109.856 10.314 112.049 9.23641 113.127C8.90818 113.455 8.90818 113.968 9.23641 114.296C10.314 115.375 12.8717 117.567 15.856 117.567C18.8402 117.567 21.3979 115.374 22.4755 114.296Z" fill="#76A34F"/>
<path d="M34.1188 124.511C33.7712 124.201 33.227 124.201 32.8794 124.511C31.736 125.527 29.4121 127.94 29.4121 130.756C29.4121 133.571 31.7368 135.984 32.8794 137.001C33.227 137.31 33.7712 137.31 34.1188 137.001C35.2622 135.984 37.5861 133.571 37.5861 130.756C37.5861 127.94 35.2622 125.527 34.1188 124.511Z" fill="#76A34F"/>
<path d="M34.1188 102.912C33.7712 103.222 33.227 103.222 32.8794 102.912C31.736 101.896 29.4121 99.4825 29.4121 96.6671C29.4121 93.8516 31.7368 91.4386 32.8794 90.4219C33.227 90.1123 33.7712 90.1123 34.1188 90.4219C35.2622 91.4386 37.5861 93.8516 37.5861 96.6671C37.5861 99.4825 35.2622 101.896 34.1188 102.912Z" fill="#76A34F"/>
<path d="M82.4995 52.4903L84.1314 49.7194C85.3003 47.7343 88.5044 48.545 88.4649 50.8149L88.4092 53.9846C88.379 55.6957 90.3546 56.7715 91.9106 55.8915L94.7919 54.2614C96.8557 53.0935 99.2021 55.3072 97.9642 57.2543L96.2364 59.9726C95.3036 61.4406 96.4438 63.3037 98.2576 63.2759L101.617 63.2233C104.023 63.1861 104.882 66.209 102.779 67.3118L99.8415 68.8513C98.2553 69.6824 98.2553 71.834 99.8415 72.6651L102.779 74.2047C104.883 75.3075 104.023 78.3304 101.617 78.2931L98.2576 78.2405C96.4438 78.2121 95.3036 80.0759 96.2364 81.5439L97.9642 84.2622C99.2021 86.2093 96.8557 88.4229 94.7919 87.2551L91.9106 85.625C90.3546 84.7449 88.3798 85.8207 88.4092 87.5319L88.4649 90.7016C88.5044 92.9715 85.3003 93.7814 84.1314 91.7971L82.4995 89.0262C81.6186 87.5297 79.338 87.5297 78.457 89.0262L76.8252 91.7971C75.6562 93.7821 72.4521 92.9715 72.4916 90.7016L72.5473 87.5319C72.5775 85.8207 70.602 84.7449 69.046 85.625L66.1647 87.2551C64.1009 88.4229 61.7545 86.2093 62.9923 84.2622L64.7202 81.5439C65.653 80.0759 64.5127 78.2128 62.6989 78.2405L59.3392 78.2931C56.9332 78.3304 56.0747 75.3075 58.178 74.2047L61.1151 72.6651C62.7012 71.834 62.7012 69.6824 61.1151 68.8513L58.178 67.3118C56.0739 66.209 56.9332 63.1861 59.3392 63.2233L62.6989 63.2759C64.5127 63.3044 65.653 61.4406 64.7202 59.9726L62.9923 57.2543C61.7545 55.3072 64.1009 53.0935 66.1647 54.2614L69.046 55.8915C70.602 56.7715 72.5768 55.6957 72.5473 53.9846L72.4916 50.8149C72.4521 48.545 75.6562 47.7351 76.8252 49.7194L78.457 52.4903C79.338 53.9868 81.6186 53.9868 82.4995 52.4903Z" fill="#FFA91A"/>
<path d="M89.5496 81.5327C95.8631 76.8554 96.9622 68.235 92.0044 62.2785C87.0466 56.3221 77.9094 55.2852 71.5958 59.9625C65.2822 64.6399 64.1832 73.2603 69.1409 79.2167C74.0987 85.1732 83.236 86.2101 89.5496 81.5327Z" fill="#F79219"/>
<path d="M84.4329 79.51C89.5629 77.486 91.9824 71.9217 89.837 67.0818C87.6917 62.242 81.7938 59.9593 76.6637 61.9834C71.5337 64.0074 69.1142 69.5717 71.2596 74.4115C73.405 79.2514 79.3028 81.534 84.4329 79.51Z" fill="#EF7816"/>
<path d="M82.8073 73.9481C84.6966 72.7142 85.1681 70.269 83.8602 68.4866C82.5524 66.7041 79.9606 66.2594 78.0713 67.4932C76.182 68.7271 75.7106 71.1723 77.0184 72.9547C78.3262 74.7372 80.918 75.1819 82.8073 73.9481Z" fill="#E63950"/>
</g>
</svg>
