<svg width="42" height="42" viewBox="0 0 42 42" fill="none" xmlns="http://www.w3.org/2000/svg">
  <path d="M9.73561 28.4286L12.7044 25.4607C12.8298 25.3352 13.0034 25.2694 13.1805 25.2818C13.3576 25.2935 13.521 25.3811 13.6289 25.5219C14.0386 26.0574 14.4868 26.5694 14.961 27.0435C15.4351 27.5174 15.9472 27.9654 16.4829 28.3751C16.624 28.4829 16.7115 28.6463 16.7232 28.8233C16.7351 29.0003 16.6698 29.1738 16.5443 29.2993L13.5755 32.2672C13.4552 32.3875 13.2977 32.4475 13.1402 32.4475C12.9826 32.4475 12.825 32.3875 12.7047 32.2672L9.7357 29.2991C9.62024 29.1837 9.55542 29.0271 9.55542 28.8638C9.55534 28.7005 9.62016 28.5439 9.73561 28.4286Z" fill="#F7CB4F"/>
  <path d="M11.7253 31.2898L15.4796 27.5366C15.8015 27.8293 16.1355 28.1108 16.4809 28.3748C16.622 28.4826 16.7096 28.646 16.7213 28.823C16.7331 29.0001 16.6679 29.1736 16.5423 29.2991L13.5736 32.267C13.4533 32.3872 13.2957 32.4473 13.1382 32.4473C12.9807 32.4473 12.823 32.3872 12.7027 32.267L11.7253 31.2898Z" fill="#F4B008"/>
  <path d="M14.0857 4.78931C17.175 1.70092 21.2824 0 25.6513 0C30.0204 0 34.1277 1.70092 37.217 4.78931C43.5944 11.1649 43.5943 21.5385 37.217 27.9139C34.1277 31.0024 30.0203 32.7032 25.6513 32.7032C21.2823 32.7032 17.1749 31.0023 14.0856 27.9139C7.70842 21.5385 7.70842 11.1648 14.0857 4.78931Z" fill="#F7CB4F"/>
  <path d="M14.0869 4.78931C17.1762 1.70092 21.2836 0 25.6524 0C26.0309 0 26.4072 0.0136172 26.7812 0.0389648C22.8373 0.305977 19.1661 1.96842 16.3444 4.78923C9.96706 11.1648 9.96706 21.5385 16.3444 27.9138C19.1661 30.7347 22.8373 32.3973 26.7812 32.6642C26.4072 32.6895 26.0309 32.7032 25.6524 32.7032C21.2835 32.7032 17.1761 31.0022 14.0867 27.9138C7.70956 21.5385 7.70957 11.1648 14.0869 4.78931Z" fill="#F4B008"/>
  <path d="M25.65 3.42456C32.741 3.42456 38.5098 9.19177 38.5098 16.2807C38.5098 23.3696 32.7409 29.1368 25.65 29.1368C18.559 29.1368 12.7902 23.3696 12.7902 16.2807C12.7902 9.19177 18.5591 3.42456 25.65 3.42456Z" fill="#EFE7E4"/>
  <path d="M25.6514 3.42456C26.0401 3.42456 26.4246 3.44285 26.8047 3.47681C20.2521 4.06186 15.0982 9.58035 15.0982 16.2807C15.0982 22.981 20.2522 28.4995 26.8047 29.0845C26.4246 29.1184 26.0402 29.1368 25.6514 29.1368C18.5605 29.1368 12.7916 23.3696 12.7916 16.2807C12.7916 9.19177 18.5606 3.42456 25.6514 3.42456Z" fill="#D8D1D0"/>
  <path d="M17.0887 25.3847C17.6312 23.6444 18.782 22.0591 20.329 20.9208C21.8812 19.7788 23.7687 19.1358 25.644 19.1102C25.6496 19.1101 25.6553 19.1101 25.6608 19.1102C27.5361 19.1358 29.4237 19.7789 30.9759 20.9208C32.5229 22.0591 33.6737 23.6444 34.2162 25.3847C34.2893 25.6192 34.216 25.8746 34.0297 26.0347C31.7011 28.0353 28.726 29.137 25.6526 29.137C22.5791 29.137 19.604 28.0353 17.2754 26.0347C17.089 25.8746 17.0156 25.6193 17.0887 25.3847Z" fill="#68B9D8"/>
  <path d="M17.088 25.3846C17.6304 23.6442 18.7813 22.0589 20.3282 20.9207C21.8382 19.8097 23.6655 19.1727 25.4902 19.1152C22.2409 20.3521 19.5998 23.0003 18.5791 26.267C18.5086 26.4845 18.4503 26.6949 18.4023 26.8995C18.0122 26.6332 17.6356 26.3448 17.2744 26.0346C17.0882 25.8744 17.0149 25.6191 17.088 25.3846Z" fill="#3695B2"/>
  <path d="M22.992 26.6484L24.0982 21.6643C24.1626 21.3743 24.4114 21.1687 24.6982 21.1687H26.6062C26.8931 21.1687 27.1418 21.3742 27.2062 21.6643L28.3124 26.6484C28.3622 26.8728 28.2918 27.1078 28.1281 27.2633L26.3358 28.9659C26.2257 29.0705 26.0827 29.1301 25.9335 29.1334C25.8398 29.1355 25.7463 29.1371 25.6523 29.1371C25.5582 29.1371 25.4647 29.1355 25.3711 29.1334C25.2218 29.13 25.0788 29.0705 24.9687 28.9659L23.1764 27.2633C23.0126 27.1077 22.9422 26.8727 22.992 26.6484Z" fill="#F2464F"/>
  <path d="M1.10686 35.5511L8.98347 27.6766C9.099 27.5611 9.25564 27.4963 9.41885 27.4963C9.58214 27.4963 9.7387 27.5611 9.85423 27.6766L14.3275 32.1487C14.443 32.2641 14.5078 32.4207 14.5078 32.5839C14.5078 32.7472 14.443 32.9038 14.3275 33.0192L6.45084 40.8936C5.73713 41.6071 4.78817 42 3.77881 42C2.76945 42 1.82057 41.6071 1.10686 40.8936C0.393143 40.1801 9.91821e-05 39.2314 9.91821e-05 38.2224C9.91821e-05 37.2133 0.393143 36.2646 1.10686 35.5511Z" fill="#353535"/>
  <path d="M0.132701 39.2169C0.420467 39.4165 0.742042 39.6457 1.10481 39.9109C2.31397 40.6074 3.88515 40.4395 4.91904 39.406L13.2546 31.0759L14.3275 32.1486C14.443 32.264 14.5078 32.4206 14.5078 32.5838C14.5078 32.7471 14.443 32.9037 14.3275 33.0191L6.45084 40.8935C5.73713 41.607 4.78817 41.9999 3.77881 41.9999C2.76945 41.9999 1.82057 41.607 1.10686 40.8935C0.634057 40.4209 0.303047 39.845 0.132701 39.2169Z" fill="#262626"/>
  <path d="M24.7603 19.7876L25.9297 22.0773H25.6523H24.6986L23.6321 20.0051C24.001 19.9073 24.378 19.8347 24.7603 19.7876Z" fill="#AF273B"/>
  <path d="M25.6595 19.1102C26.6488 19.1237 27.6408 19.3106 28.5859 19.6504L27.2977 22.0774H24.0047L22.7365 19.6431C23.6754 19.3079 24.6606 19.1236 25.6428 19.1101C25.6482 19.1101 25.654 19.1101 25.6595 19.1102Z" fill="#D3333C"/>
  <path d="M24.5017 19.2026L25.8633 22.0774H24.0064L22.7385 19.6431C23.3128 19.4381 23.9042 19.2902 24.5017 19.2026Z" fill="#AF273B"/>
  <path d="M25.6508 7.75854C28.1804 7.75854 30.2383 9.81597 30.2383 12.3447V15.7617C30.2383 18.2906 28.1803 20.3479 25.6508 20.3479C23.1213 20.3479 21.0632 18.2905 21.0632 15.7617V12.3447C21.0632 9.81597 23.1213 7.75854 25.6508 7.75854Z" fill="#FFC89F"/>
  <path d="M25.6524 7.75854C26.0419 7.75854 26.4199 7.80768 26.7812 7.89939C24.7958 8.40356 23.3225 10.2052 23.3225 12.3448V15.7618C23.3225 17.9013 24.7957 19.703 26.7812 20.2072C26.42 20.299 26.0419 20.348 25.6524 20.348C23.1228 20.348 21.0649 18.2906 21.0649 15.7618V12.3449C21.0649 9.81597 23.1229 7.75854 25.6524 7.75854Z" fill="#F7B081"/>
  <path d="M21.0632 14.0501V12.3447C21.0632 9.81581 23.1213 7.75854 25.6508 7.75854C28.1804 7.75854 30.2383 9.81597 30.2383 12.3447V14.0506H29.6207C26.1507 14.0506 24.8867 11.7082 24.8867 11.7082C24.8867 11.7082 24.003 14.0392 21.6808 14.0501H21.0632Z" fill="black"/>
</svg>
