<svg width="48" height="48" viewBox="0 0 48 48" fill="none" xmlns="http://www.w3.org/2000/svg">
  <path d="M24 48C37.2548 48 48 37.2548 48 24C48 10.7452 37.2548 0 24 0C10.7452 0 0 10.7452 0 24C0 37.2548 10.7452 48 24 48Z" fill="#B7A2E0"/>
  <path d="M38.9023 15.75H8.90234V32.625L14.1835 45.8996C17.1812 47.2451 20.5011 48 23.9995 48C33.8432 48 42.2983 42.0709 46.0007 33.5914L38.9023 15.75Z" fill="#B7A2E0"/>
  <path d="M38.7852 32.625H8.78516V15.75H38.7852V21.375V32.625Z" fill="#45998B"/>
  <path d="M38.0336 28.125V20.25C36.1586 20.25 34.4017 18.5707 34.4017 16.5H13.7767C13.7767 18.5707 12.0386 20.25 9.96745 20.25C9.8407 20.25 9.9082 20.2433 9.5332 20.2309V28.1441C9.9082 28.1318 9.8407 28.125 9.96745 28.125C12.0386 28.125 13.7767 29.8042 13.7767 31.875H34.4017C34.4017 29.8042 36.1586 28.125 38.0336 28.125Z" fill="#B8E6DF"/>
  <path d="M14.5273 26.0625C15.5629 26.0625 16.4023 25.223 16.4023 24.1875C16.4023 23.152 15.5629 22.3125 14.5273 22.3125C13.4918 22.3125 12.6523 23.152 12.6523 24.1875C12.6523 25.223 13.4918 26.0625 14.5273 26.0625Z" fill="#45998B"/>
  <path d="M33.2773 26.0625C34.3129 26.0625 35.1523 25.223 35.1523 24.1875C35.1523 23.152 34.3129 22.3125 33.2773 22.3125C32.2418 22.3125 31.4023 23.152 31.4023 24.1875C31.4023 25.223 32.2418 26.0625 33.2773 26.0625Z" fill="#45998B"/>
  <path d="M23.9023 29.8125C27.0089 29.8125 29.5273 27.2941 29.5273 24.1875C29.5273 21.0809 27.0089 18.5625 23.9023 18.5625C20.7957 18.5625 18.2773 21.0809 18.2773 24.1875C18.2773 27.2941 20.7957 29.8125 23.9023 29.8125Z" fill="#45998B"/>
  <path d="M23.5913 26.5316V24.6997C23.0201 24.5358 22.6009 24.2894 22.3343 23.9583C22.0676 23.6272 21.9341 23.2259 21.9341 22.7538C21.9341 22.2764 22.0849 21.8744 22.3868 21.5493C22.6886 21.2246 23.0899 21.0374 23.5913 20.9876V20.5552H24.225V20.9876C24.6885 21.0427 25.0575 21.2009 25.3313 21.4623C25.605 21.7229 25.7801 22.0724 25.8555 22.5093L24.7496 22.6537C24.6821 22.3098 24.5074 22.0769 24.225 21.9543V23.6639C24.9244 23.8537 25.401 24.0989 25.6545 24.4008C25.9084 24.7027 26.0355 25.0893 26.0355 25.5618C26.0355 26.0891 25.8758 26.5338 25.5566 26.8949C25.2375 27.2564 24.7943 27.4784 24.2254 27.5594V28.3769H23.5916V27.5812C23.0873 27.5197 22.6778 27.3318 22.3631 27.0172C22.0485 26.7022 21.8475 26.2585 21.7598 25.6837L22.9005 25.5614C22.9474 25.7943 23.0344 25.9953 23.163 26.1644C23.2909 26.3336 23.4338 26.4558 23.5913 26.5316ZM23.5913 21.9412C23.4191 21.9997 23.2823 22.0987 23.1803 22.2386C23.0783 22.3784 23.0273 22.5329 23.0273 22.7021C23.0273 22.8562 23.0738 22.9998 23.1671 23.1318C23.2605 23.2646 23.4015 23.3722 23.5913 23.4532V21.9412ZM24.225 26.5927C24.4436 26.5518 24.6218 26.4505 24.7586 26.2882C24.8951 26.1262 24.9638 25.9364 24.9638 25.7178C24.9638 25.5224 24.9068 25.3544 24.7916 25.2131C24.6761 25.0717 24.4875 24.9629 24.225 24.8872V26.5927Z" fill="#F5F5F5"/>
</svg>
