<svg width="1024" height="1024" viewBox="0 0 1024 1024" fill="none" xmlns="http://www.w3.org/2000/svg">
<path d="M43 461C177.667 352 543.6 187.4 950 449.001C956 496.001 964 492 1010 566C880 437 795 545 968 965H891C893.332 670 740 525 726 965H673C817 436 563 -1.99966 571 965H538C523 630 504.333 618.333 499 965H467C475 -1.99966 221 436 365 965H315C301 525 147.668 670 150 965H56C229 545 144 437 14 566C53.2 512.4 49.6667 473.666 43 461Z" fill="#F9BF2D" stroke="black" stroke-width="0.328125"/>
<circle cx="172" cy="252" r="77.8359" fill="#F9BF2D" stroke="black" stroke-width="0.328125"/>
<circle cx="512" cy="160" r="77.8359" fill="#F9BF2D" stroke="black" stroke-width="0.328125"/>
<circle cx="852" cy="252" r="77.8359" fill="#F9BF2D" stroke="black" stroke-width="0.328125"/>
</svg>
